<?xml version="1.0" encoding="UTF-8"?>
<!DOCTYPE svg PUBLIC "-//W3C//DTD SVG 1.1//EN" "http://www.w3.org/Graphics/SVG/1.1/DTD/svg11.dtd">
<!-- Creator: CorelDRAW X8 -->
<svg xmlns="http://www.w3.org/2000/svg" xml:space="preserve" width="100%" height="100%" version="1.1" style="shape-rendering:geometricPrecision; text-rendering:geometricPrecision; image-rendering:optimizeQuality; fill-rule:evenodd; clip-rule:evenodd"
viewBox="0 0 2200 1900"
 xmlns:xlink="http://www.w3.org/1999/xlink">
 <defs>
  <style type="text/css">
   <![CDATA[
    .fil0 {fill:white}
   ]]>
  </style>
 </defs>
<symbol id="hex_bevel" viewBox="42 33 2117 1833">
 <path id="hex_bevel_0" class="fil0" d="M42 950l264 -458 265 -459 529 0 529 0 265 459 264 458 -264 458 -265 459 -529 0 -529 0 -265 -459 -264 -458zm81 0l489 846 976 0 489 -846 -489 -846 -976 0 -489 846z"/>
</symbol>
 <g id="main">
  <metadata id="CorelCorpID_0Corel-Layer"/>
  <path id="space_man" class="fil0" d="M568 1483c27,-104 53,-209 80,-314 15,-48 53,-77 114,-88 0,-28 0,-56 0,-84 12,-1 25,-2 37,-3 0,-30 0,-61 0,-91 -13,-10 -27,-21 -40,-31 0,-67 0,-135 0,-203 14,-8 29,-16 43,-25 50,-143 148,-219 294,-227l0 0 4 0 4 0 0 0c146,8 244,84 294,227 14,9 29,17 43,25 0,68 0,136 0,203 -13,10 -27,21 -40,31 0,30 0,61 0,91 12,1 25,2 37,3 0,28 0,56 0,84 61,11 99,40 114,88 27,105 53,210 80,314 -128,0 -255,0 -382,0 0,-72 0,-144 0,-216 -100,0 -200,0 -300,0 0,72 0,144 0,216 -127,0 -254,0 -382,0zm552 -679c29,0 53,22 57,50 3,0 5,0 7,-1 12,-1 23,-3 34,-6 50,-12 96,-37 132,-69l0 -114c-134,-120 -380,-120 -486,0 0,77 0,153 0,229 164,71 327,75 486,0l0 -78c-36,27 -80,48 -126,60 -12,3 -24,5 -36,6 -5,1 -9,1 -14,2 -8,22 -29,37 -54,37 -32,0 -58,-26 -58,-58 0,-32 26,-58 58,-58zm-214 -22l0 -101 0 -6 4 -4c16,-16 33,-28 51,-37 19,-10 38,-16 59,-18l4 28c-18,2 -35,7 -50,15 -14,7 -27,16 -40,28l0 95 -28 0z"/>
  <path id="hex_bevel_1" class="fil0" d="M42 950l264 -458 265 -459 529 0 529 0 265 459 264 458 -264 458 -265 459 -529 0 -529 0 -265 -459 -264 -458zm81 0l489 846 976 0 489 -846 -489 -846 -976 0 -489 846z"/>
 </g>
</svg>
