<svg id="time" xmlns="http://www.w3.org/2000/svg" width="100%" height="100%" viewBox="0 0 265 59">
  <defs>
    <style>
      .cls-1, .cls-2, .cls-3, .cls-4 {
        fill-rule: evenodd;
      }

      .cls-1 {
        opacity: 0.5;
      }

      .cls-2 {
        fill: none;
        stroke: #0cf;
        stroke-width: 2px;
      }

      .cls-3 {
        fill: #0cf;
      }
    </style>
  </defs>
  <path id="Filling" class="cls-1" d="M74,72L89,45,76,17l179-1,16,29L255,72H74Z" transform="translate(-7 -15)"/>
  <path id="Border_right_" data-name="Border (right)" class="cls-2" d="M255,73H25L8,45,25,16H255l16,29Z" transform="translate(-7 -15)"/>
  <path id="Hex_left_" data-name="Hex (left)" class="cls-3" d="M8,46L25,16H76L90,45,74,73H25Z" transform="translate(-7 -15)"/>
  <path class="cls-4" d="M44.251,38.5c1.339,1.819,2.687,3.55,4.048,5.221a1.319,1.319,0,0,0-.19,1.235c-0.12.228-.236,0.457-0.351,0.685,0.459,0.3.913,0.592,1.37,0.887,0.192-.238.38-0.48,0.566-0.723a1.261,1.261,0,0,0,.253-0.094c0.3,0.361.608,0.721,0.914,1.078,0.173-.14.349-0.278,0.521-0.417C51.092,45.986,50.8,45.6,50.5,45.21a1.357,1.357,0,0,0,.19-0.763,36.6,36.6,0,0,0,2.7-4.5q-0.686-.445-1.37-0.888a30.207,30.207,0,0,0-2.95,4.166l-0.089.023q-2.019-2.578-4.212-5.158l-0.522.416h0ZM40.406,32.31l0.377,0.531-0.418.3L39.987,32.6q-0.311.227-.61,0.467l0.422,0.5-0.392.33-0.424-.5q-0.3.262-.594,0.54l0.468,0.467-0.364.362-0.468-.47c-0.165.168-.328,0.345-0.485,0.522l0.505,0.433-0.332.389-0.508-.434c-0.161.194-.317,0.391-0.469,0.593L37.283,36.2l-0.3.415-0.546-.392c-0.135.193-.266,0.39-0.392,0.589l2.083,1.2-0.576.995-2.086-1.2c-0.094.177-.185,0.354-0.271,0.533l0.619,0.285-0.214.465L34.978,38.8c-0.1.235-.2,0.473-0.294,0.713l0.645,0.234-0.173.481-0.645-.233c-0.088.253-.169,0.508-0.243,0.767l0.664,0.177-0.134.5-0.663-.177c-0.057.23-.109,0.463-0.156,0.7l0.674,0.125-0.093.5-0.674-.123c-0.042.247-.077,0.5-0.105,0.75l0.682,0.067-0.051.51-0.682-.068q-0.029.345-.042,0.7H36.1v1.15H33.688c0.01,0.234.024,0.467,0.043,0.7l0.682-.067,0.05,0.509-0.68.068c0.029,0.256.065,0.511,0.109,0.764l0.671-.126,0.094,0.505-0.672.123c0.054,0.265.113,0.526,0.181,0.785l0.658-.181,0.136,0.493-0.657.182c0.069,0.229.14,0.455,0.218,0.68l0.64-.233,0.175,0.482-0.638.233c0.091,0.234.187,0.468,0.29,0.7l0.613-.282,0.214,0.465-0.612.281c0.087,0.179.176,0.356,0.269,0.53l2.079-1.2,0.576,1-2.075,1.2c0.126,0.195.254,0.389,0.388,0.579l0.538-.387,0.3,0.417-0.536.386c0.153,0.2.312,0.406,0.477,0.6l0.5-.426,0.333,0.39-0.5.425c0.177,0.2.36,0.393,0.549,0.584l0.456-.463,0.366,0.36-0.455.462c0.17,0.163.347,0.32,0.526,0.475l0.414-.493L39.8,56.4l-0.412.492c0.2,0.157.394,0.309,0.6,0.457l0.369-.52,0.418,0.3-0.368.519c0.163,0.11.328,0.218,0.495,0.322l1.181-2.046,1,0.575L41.9,58.536c0.2,0.1.4,0.2,0.6,0.3l0.258-.568,0.466,0.211-0.255.566c0.234,0.1.469,0.193,0.71,0.282l0.206-.581,0.484,0.172-0.206.577c0.252,0.083.506,0.161,0.764,0.231l0.154-.588,0.495,0.13-0.154.585c0.231,0.054.461,0.1,0.692,0.147l0.106-.591,0.505,0.09-0.1.588c0.245,0.038.493,0.069,0.743,0.1l0.055-.589,0.509,0.049-0.055.585c0.2,0.013.4,0.024,0.6,0.031V57.945h1.152v2.3c0.233-.011.468-0.026,0.7-0.046l-0.058-.568,0.511-.052,0.058,0.566c0.253-.03.5-0.068,0.75-0.111l-0.1-.556,0.5-.093,0.1,0.553c0.26-.055.516-0.114,0.772-0.181l-0.149-.538,0.495-.138,0.147,0.535c0.225-.068.45-0.14,0.669-0.217l-0.188-.519,0.481-.177,0.19,0.515c0.232-.089.459-0.185,0.688-0.287l-0.229-.493,0.464-.215,0.229,0.491c0.168-.083.339-0.169,0.5-0.257L55.041,56.5l1-.575,1.13,1.956c0.188-.12.373-0.243,0.558-0.373l-0.307-.428,0.415-.3L58.139,57.2c0.2-.151.4-0.306,0.594-0.468l-0.337-.4,0.39-.332L59.123,56.4c0.194-.175.389-0.354,0.575-0.54L59.334,55.5l0.358-.364,0.362,0.359c0.162-.169.321-0.342,0.471-0.519l-0.39-.328,0.333-.392,0.387,0.326c0.154-.192.305-0.387,0.452-0.587L60.9,53.7l0.3-.419,0.41,0.293c0.111-.164.219-0.328,0.325-0.5L60,51.962l0.574-1L62.5,52.081q0.148-.282.287-0.57L62.331,51.3l0.212-.467L63,51.042c0.1-.23.2-0.463,0.282-0.7l-0.47-.168,0.174-.484,0.468,0.168c0.085-.249.161-0.5,0.234-0.754L63.2,48.981l0.132-.495,0.477,0.125c0.055-.225.105-0.452,0.152-0.683l-0.486-.087,0.091-.5,0.483,0.086c0.041-.243.075-0.487,0.1-0.734l-0.49-.047,0.048-.51,0.49,0.046c0.014-.2.028-0.41,0.037-0.616H62.02v-1.15h2.219C64.23,44.208,64.218,44,64.2,43.8l-0.491.046-0.05-.51,0.493-.047c-0.026-.252-0.063-0.5-0.1-0.746l-0.488.086-0.092-.5,0.49-.088c-0.05-.259-0.108-0.515-0.169-0.769l-0.485.129-0.131-.495,0.483-.13c-0.065-.225-0.133-0.448-0.207-0.669l-0.474.17-0.174-.483,0.474-.17c-0.087-.231-0.178-0.461-0.277-0.688l-0.461.209-0.211-.466,0.461-.21q-0.136-.293-0.288-0.582l-1.939,1.119L60,38.01l1.94-1.121c-0.1-.165-0.209-0.33-0.319-0.491l-0.42.3-0.3-.418,0.423-.3c-0.151-.2-0.3-0.4-0.461-0.6l-0.4.335-0.329-.394,0.4-.335c-0.173-.2-0.349-0.393-0.534-0.583l-0.369.37-0.363-.362,0.373-.372q-0.25-.246-0.512-0.479l-0.344.4-0.392-.333,0.347-.406q-0.286-.236-0.585-0.462l-0.312.436-0.415-.3,0.314-.44c-0.186-.13-0.373-0.254-0.563-0.377l-1.137,1.969-1-.576L56.182,31.5c-0.2-.107-0.4-0.21-0.6-0.306l-0.231.507-0.466-.21,0.231-.51c-0.231-.1-0.466-0.2-0.7-0.29l-0.19.534-0.484-.171,0.191-.537c-0.251-.086-0.5-0.165-0.757-0.238l-0.145.553-0.5-.129,0.146-.557c-0.228-.057-0.456-0.109-0.688-0.155l-0.1.572-0.505-.089,0.1-.575c-0.245-.041-0.493-0.076-0.741-0.105l-0.055.586-0.512-.048,0.055-.588c-0.2-.015-0.394-0.028-0.593-0.036v2.322H48.484V29.7c-0.2.006-.4,0.015-0.594,0.03l0.058,0.6-0.512.048-0.055-.606c-0.255.026-.507,0.059-0.76,0.1l0.108,0.605-0.5.09-0.109-.608q-0.392.073-.781,0.169l0.163,0.6L45,30.859l-0.163-.6c-0.229.063-.455,0.134-0.679,0.207l0.212,0.593-0.484.173-0.211-.6c-0.236.086-.471,0.18-0.7,0.278l0.262,0.58-0.466.211-0.264-.584c-0.208.1-.413,0.2-0.615,0.305l1.186,2.053-1,.576L40.9,31.993q-0.248.154-.489,0.317h0Zm10.773,3.717H50.021a15.5,15.5,0,0,0,1.072-1.72,1.837,1.837,0,0,0,.181-0.768,1.062,1.062,0,0,0-.319-0.791A1.339,1.339,0,0,0,50,32.436a1.361,1.361,0,0,0-.55.1,0.939,0.939,0,0,0-.378.3,0.99,0.99,0,0,0-.178.4,3.443,3.443,0,0,0-.037.56v0.153H49.8v-0.4a0.759,0.759,0,0,1,.059-0.37,0.2,0.2,0,0,1,.181-0.093,0.2,0.2,0,0,1,.178.084,0.443,0.443,0,0,1,.06.258,1.539,1.539,0,0,1-.195.626q-0.194.4-1.227,2.087l0,0.6h2.323V36.028h0Zm-2.688-3.511h-0.62a1.9,1.9,0,0,1-1.159.675v0.492h0.1a1.356,1.356,0,0,1,.471.051,0.213,0.213,0,0,1,.13.152,3.828,3.828,0,0,1,.024.591V36.75h1.052V32.517h0ZM61,44.742a0.882,0.882,0,0,0,.34-0.289,1.021,1.021,0,0,0,.1-0.513,1.172,1.172,0,0,0-.268-0.82,1.371,1.371,0,0,0-1.025-.3,1.444,1.444,0,0,0-.88.214,0.988,0.988,0,0,0-.277.816v0.36H60.04V43.868a0.722,0.722,0,0,1,.044-0.317,0.149,0.149,0,0,1,.149-0.075,0.16,0.16,0,0,1,.144.07,0.635,0.635,0,0,1,.044.294v0.234a0.856,0.856,0,0,1-.039.3,0.2,0.2,0,0,1-.128.126,2.107,2.107,0,0,1-.464.029v0.615a1.676,1.676,0,0,1,.413.041,0.271,0.271,0,0,1,.164.146,0.884,0.884,0,0,1,.053.357v0.292a1.745,1.745,0,0,1-.039.492,0.156,0.156,0,0,1-.161.095,0.14,0.14,0,0,1-.146-0.075,1.081,1.081,0,0,1-.035-0.349V45.456H58.988v0.335a2.833,2.833,0,0,0,.089.85,0.819,0.819,0,0,0,.377.413,1.549,1.549,0,0,0,.787.168,1.573,1.573,0,0,0,.724-0.144,0.819,0.819,0,0,0,.4-0.422,2.127,2.127,0,0,0,.115-0.783,1.928,1.928,0,0,0-.118-0.865A0.648,0.648,0,0,0,61,44.742h0ZM49.436,55.427a0.693,0.693,0,0,0-.048-0.306,0.18,0.18,0,0,0-.166-0.085,0.175,0.175,0,0,0-.16.081,0.6,0.6,0,0,0-.053.311v0.763a0.846,0.846,0,0,0,.05.366,0.171,0.171,0,0,0,.161.086,0.223,0.223,0,0,0,.144-0.068,0.544,0.544,0,0,0,.072-0.357V55.427h0Zm1.055-1.316a1.561,1.561,0,0,0-.123-0.66,0.874,0.874,0,0,0-.409-0.407,1.627,1.627,0,0,0-.73-0.143,1.662,1.662,0,0,0-.636.113,1,1,0,0,0-.617.824c-0.014.169-.021,0.507-0.021,1.009v0.585c0,0.466.007,0.781,0.023,0.942a1.028,1.028,0,0,0,.173.464,0.959,0.959,0,0,0,.418.338,1.805,1.805,0,0,0,.7.117,1.613,1.613,0,0,0,.6-0.1,0.94,0.94,0,0,0,.406-0.287,0.828,0.828,0,0,0,.183-0.4,4.864,4.864,0,0,0,.034-0.661V55.509a2.275,2.275,0,0,0-.062-0.593,0.665,0.665,0,0,0-.282-0.376,0.867,0.867,0,0,0-.514-0.157,0.791,0.791,0,0,0-.387.085,0.556,0.556,0,0,0-.238.252V54.048a3.091,3.091,0,0,1,.009-0.317,0.189,0.189,0,0,1,.195-0.177,0.217,0.217,0,0,1,.154.052,0.187,0.187,0,0,1,.062.131c0,0.05.007,0.175,0.007,0.373h1.055ZM37.738,44.736a0.483,0.483,0,0,0,.07.329,0.214,0.214,0,0,0,.143.063,0.18,0.18,0,0,0,.163-0.08,0.62,0.62,0,0,0,.052-0.312V43.97a0.876,0.876,0,0,0-.049-0.367,0.171,0.171,0,0,0-.162-0.085,0.219,0.219,0,0,0-.143.065,0.55,0.55,0,0,0-.074.361v0.792h0Zm-1.054,1.318a1.529,1.529,0,0,0,.124.66,0.868,0.868,0,0,0,.409.406,1.613,1.613,0,0,0,.73.144,1.663,1.663,0,0,0,.636-0.115,0.969,0.969,0,0,0,.435-0.341,0.947,0.947,0,0,0,.182-0.483c0.014-.17.022-0.506,0.022-1.009v-0.59c0-.464-0.008-0.779-0.023-0.94a1,1,0,0,0-.173-0.465,0.941,0.941,0,0,0-.421-0.338,1.754,1.754,0,0,0-.7-0.118,1.609,1.609,0,0,0-.6.1,0.944,0.944,0,0,0-.405.287,0.836,0.836,0,0,0-.181.4,4.331,4.331,0,0,0-.037.661v0.337a2.309,2.309,0,0,0,.061.6,0.681,0.681,0,0,0,.281.376,0.877,0.877,0,0,0,.515.158,0.816,0.816,0,0,0,.39-0.085,0.546,0.546,0,0,0,.236-0.253v0.672c0,0.158,0,.263-0.007.318a0.2,0.2,0,0,1-.058.127,0.2,0.2,0,0,1-.136.049,0.214,0.214,0,0,1-.153-0.052,0.2,0.2,0,0,1-.066-0.13c-0.006-.051-0.008-0.176-0.008-0.374H36.684Zm3.456-6.988a0.729,0.729,0,0,0-.016-0.2,0.069,0.069,0,0,0-.074-0.041,0.075,0.075,0,0,0-.075.043,0.677,0.677,0,0,0-.018.2v1a0.763,0.763,0,0,0,.016.215,0.073,0.073,0,0,0,.075.036,0.07,0.07,0,0,0,.075-0.042,0.6,0.6,0,0,0,.018-0.194V39.066h0Zm0.511,0.172a1.792,1.792,0,0,0-.022-0.34,0.5,0.5,0,0,0-.089-0.191,0.526,0.526,0,0,0-.2-0.145,0.739,0.739,0,0,0-.3-0.059,0.69,0.69,0,0,0-.351.085,0.409,0.409,0,0,0-.193.226,1.346,1.346,0,0,0-.049.424v0.715a1.134,1.134,0,0,0,.031.317,0.553,0.553,0,0,0,.1.19,0.433,0.433,0,0,0,.194.132,0.954,0.954,0,0,0,.306.043,0.752,0.752,0,0,0,.252-0.042,0.428,0.428,0,0,0,.192-0.133,0.463,0.463,0,0,0,.106-0.2,1.606,1.606,0,0,0,.025-0.34V39.238h0Zm-1.406-.7h-0.3a0.923,0.923,0,0,1-.563.329v0.238h0.05a0.654,0.654,0,0,1,.228.025,0.106,0.106,0,0,1,.063.074,1.921,1.921,0,0,1,.011.289v1.1h0.512V38.541h0Zm4.856-4.2H43.8a0.918,0.918,0,0,1-.563.328v0.239h0.05a0.668,0.668,0,0,1,.23.024,0.112,0.112,0,0,1,.063.073,2.3,2.3,0,0,1,.01.288v1.1H44.1V34.346h0Zm-0.989,0h-0.3a0.924,0.924,0,0,1-.565.328v0.239H42.3a0.654,0.654,0,0,1,.228.024,0.113,0.113,0,0,1,.063.073,2.056,2.056,0,0,1,.011.288v1.1h0.512V34.346h0Zm12.217,0.041h-0.3a0.934,0.934,0,0,1-.566.329v0.238h0.05a0.636,0.636,0,0,1,.229.026,0.105,0.105,0,0,1,.063.072,2.225,2.225,0,0,1,.011.286v1.1h0.512V34.386h0Zm4.263,5.551H59.029A8.139,8.139,0,0,0,59.55,39.1a0.944,0.944,0,0,0,.087-0.374,0.508,0.508,0,0,0-.157-0.384,0.636,0.636,0,0,0-.461-0.151,0.706,0.706,0,0,0-.268.048,0.441,0.441,0,0,0-.182.148,0.479,0.479,0,0,0-.088.195,1.811,1.811,0,0,0-.017.272v0.075h0.459V38.737a0.373,0.373,0,0,1,.029-0.18,0.1,0.1,0,0,1,.087-0.046,0.1,0.1,0,0,1,.089.041,0.246,0.246,0,0,1,.026.126,0.738,0.738,0,0,1-.093.3c-0.063.129-.263,0.467-0.6,1.013v0.293h1.128V39.937h0Zm-0.61,11.034V50.1l-0.229.875h0.229Zm0.512-1.345H58.814L58.37,50.971V51.32h0.611v0.362h0.512V51.32h0.144V50.971H59.493V49.626h0Zm-3.587,3.91H54.8l-0.019,1.035h0.505a0.51,0.51,0,0,1,.007-0.113,0.1,0.1,0,0,1,.034-0.047,0.085,0.085,0,0,1,.06-0.021,0.086,0.086,0,0,1,.082.041,0.375,0.375,0,0,1,.024.157v0.406c0,0.143,0,.223,0,0.241a0.081,0.081,0,0,1-.027.053,0.087,0.087,0,0,1-.062.023,0.09,0.09,0,0,1-.1-0.084,1.96,1.96,0,0,1-.014-0.281V54.818H54.778v0.112a1.042,1.042,0,0,0,.062.424,0.428,0.428,0,0,0,.216.206,0.816,0.816,0,0,0,.349.069,0.845,0.845,0,0,0,.3-0.046,0.439,0.439,0,0,0,.193-0.133,0.454,0.454,0,0,0,.089-0.19,1.686,1.686,0,0,0,.023-0.32V54.648a0.7,0.7,0,0,0-.108-0.455,0.417,0.417,0,0,0-.322-0.12,0.386,0.386,0,0,0-.307.142V53.863h0.637V53.536h0Zm-12.228.369H42.7v0.369h0.507l-0.364,1.686h0.509l0.328-1.609V53.905h0Zm-4.192-2.77a0.322,0.322,0,0,0-.026-0.156,0.081,0.081,0,0,0-.076-0.038,0.073,0.073,0,0,0-.073.037,0.33,0.33,0,0,0-.023.157V51.4a0.368,0.368,0,0,0,.025.171,0.084,0.084,0,0,0,.078.038,0.078,0.078,0,0,0,.075-0.038,0.527,0.527,0,0,0,.018-0.175V51.135h0Zm-0.01-.853a0.3,0.3,0,0,0-.019-0.137,0.071,0.071,0,0,0-.072-0.034,0.066,0.066,0,0,0-.068.037,0.352,0.352,0,0,0-.017.134v0.156a0.273,0.273,0,0,0,.02.128,0.069,0.069,0,0,0,.067.036,0.072,0.072,0,0,0,.07-0.034,0.364,0.364,0,0,0,.018-0.144V50.282h0Zm0.287,0.441a0.461,0.461,0,0,0,.175-0.145,0.516,0.516,0,0,0,.043-0.24,0.579,0.579,0,0,0-.131-0.4,0.628,0.628,0,0,0-.468-0.14,0.642,0.642,0,0,0-.44.132,0.517,0.517,0,0,0-.147.4,0.592,0.592,0,0,0,.048.254,0.3,0.3,0,0,0,.143.145,0.323,0.323,0,0,0-.18.22,1.51,1.51,0,0,0-.029.323,0.986,0.986,0,0,0,.057.4,0.425,0.425,0,0,0,.192.191,0.755,0.755,0,0,0,.361.073,0.787,0.787,0,0,0,.375-0.077,0.4,0.4,0,0,0,.189-0.193A1.078,1.078,0,0,0,40,51.292a0.965,0.965,0,0,0-.06-0.432,0.365,0.365,0,0,0-.175-0.136h0Zm9.2-23.742a18,18,0,1,1-12.726,5.271,17.948,17.948,0,0,1,12.726-5.271h0Z" transform="translate(-7 -15)"/>
</svg>
