<?xml version="1.0" encoding="UTF-8"?>
<!DOCTYPE svg PUBLIC "-//W3C//DTD SVG 1.1//EN" "http://www.w3.org/Graphics/SVG/1.1/DTD/svg11.dtd">
<!-- Creator: CorelDRAW X8 -->
<svg xmlns="http://www.w3.org/2000/svg" xml:space="preserve" width="100%" height="100%" version="1.1" style="shape-rendering:geometricPrecision; text-rendering:geometricPrecision; image-rendering:optimizeQuality; fill-rule:evenodd; clip-rule:evenodd"
viewBox="0 0 2200 1900"
 xmlns:xlink="http://www.w3.org/1999/xlink">
 <defs>
  <style type="text/css">
   <![CDATA[
    .fil0 {fill:#676566}
   ]]>
  </style>
 </defs>
<symbol id="hex_bevel" viewBox="42 33 2117 1833">
 <path id="hex_bevel_0" class="fil0" d="M42 950l264 -458 265 -459 529 0 529 0 265 459 264 458 -264 458 -265 459 -529 0 -529 0 -265 -459 -264 -458zm81 0l489 846 976 0 489 -846 -489 -846 -976 0 -489 846z"/>
</symbol>
 <g id="main">
  <metadata id="CorelCorpID_0Corel-Layer"/>
  <path id="radio_plate" class="fil0" d="M813 998l-58 8 -44 285 78 42 -34 128 215 0 5 -113 52 0 2 -83c122,89 278,143 458,165 14,-117 -53,-289 -155,-457l99 -214 3 0c24,0 43,-19 43,-43 0,-24 -19,-43 -43,-43 -22,0 -40,16 -43,37l-236 15c-145,-173 -303,-299 -400,-285 -31,225 -9,410 58,558zm479 -90c-31,-45 -63,-90 -96,-133l100 -21c-4,39 13,60 50,63l-54 91zm-391 -167l216 -14c-129,-153 -262,-264 -336,-254 25,87 67,177 120,268zm416 264l-82 178c81,88 161,162 227,216 11,-91 -51,-241 -145,-394zm-147 106l104 -174c-35,-53 -73,-106 -112,-155l-209 43c65,100 141,198 217,286zm-208 98l-13 37 -63 -26 -34 -148c30,51 67,97 110,137z"/>
  <path id="hex_bevel_1" class="fil0" d="M42 950l264 -458 265 -459 529 0 529 0 265 459 264 458 -264 458 -265 459 -529 0 -529 0 -265 -459 -264 -458zm81 0l489 846 976 0 489 -846 -489 -846 -976 0 -489 846z"/>
 </g>
</svg>
