<?xml version="1.0" encoding="utf-8"?>
<!-- Generator: Adobe Illustrator 21.0.1, SVG Export Plug-In . SVG Version: 6.00 Build 0)  -->
<svg version="1.1" id="date" xmlns="http://www.w3.org/2000/svg" xmlns:xlink="http://www.w3.org/1999/xlink" x="0px" y="0px"
	 width="611.8px" height="72.3px" viewBox="0 0 611.8 72.3" style="enable-background:new 0 0 611.8 72.3;" xml:space="preserve">
<style type="text/css">
	.st0{opacity:0.5;enable-background:new    ;}
	.st1{fill:none;stroke:#00CCFF;stroke-width:2;}
	.st2{fill:#00CCFF;}
</style>
<path id="Filling_copy" class="st0" d="M82.6,70.1l18.5-33.3l-16-34.5H591l18.5,33.3l-19.7,34.5H82.6z"/>
<path id="Border_right_copy" class="st1" d="M591,71.3H22.1l-21-34.5L22.1,1H591l19.7,34.5L591,71.3z"/>
<path id="_2nd_right_arrow" class="st1" d="M377.5,1l19.7,35.8L375,71.3"/>
<path id="_1st_right_arrow" class="st1" d="M214.6,1l19.7,35.8l-21,34.5"/>
<path id="Hex_left_copy" class="st2" d="M1.2,38l21-37h62.9l17.3,35.8L82.6,71.3H22.1L1.2,38z"/>
<path id="Calendar" d="M37.6,29.5v18.8h29V29.5H37.6z M70.3,22v29.6c0,1.4-1.1,2.5-2.5,2.5h-32c-1.4,0-2.5-1.1-2.5-2.5V22
	c0-1.4,1.1-2.5,2.5-2.5h4.3v2.6c-1.2,0.6-1.7,1.9-1.1,3.1c0.6,1.2,1.9,1.7,3.1,1.1c1.2-0.6,1.7-1.9,1.1-3.1
	c-0.2-0.5-0.6-0.9-1.1-1.1v-2.6h5.6v2.6c-1.2,0.6-1.7,1.9-1.1,3.1c0.6,1.2,1.9,1.7,3.1,1.1c1.2-0.6,1.7-1.9,1.1-3.1
	c-0.2-0.5-0.6-0.9-1.1-1.1v-2.6H55v2.6c-1.2,0.6-1.7,1.9-1.1,3.1c0.6,1.2,1.9,1.7,3.1,1.1c1.2-0.6,1.7-1.9,1.1-3.1
	c-0.2-0.5-0.6-0.9-1.1-1.1v-2.6h5.2v2.6c-1.2,0.6-1.7,1.9-1.1,3.1c0.6,1.2,1.9,1.7,3.1,1.1c1.2-0.6,1.7-1.9,1.1-3.1
	c-0.2-0.5-0.6-0.9-1.1-1.1v-2.6h3.6C69.1,19.5,70.3,20.6,70.3,22C70.3,22,70.3,22,70.3,22L70.3,22L70.3,22z"/>
</svg>
