<?xml version="1.0" encoding="UTF-8"?>
<!DOCTYPE svg PUBLIC "-//W3C//DTD SVG 1.1//EN" "http://www.w3.org/Graphics/SVG/1.1/DTD/svg11.dtd">
<!-- Creator: CorelDRAW X8 -->
<svg xmlns="http://www.w3.org/2000/svg" xml:space="preserve" width="100%" height="100%" version="1.1" style="shape-rendering:geometricPrecision; text-rendering:geometricPrecision; image-rendering:optimizeQuality; fill-rule:evenodd; clip-rule:evenodd"
viewBox="0 0 2200 1900"
 xmlns:xlink="http://www.w3.org/1999/xlink">
 <defs>
  <style type="text/css">
   <![CDATA[
    .fil0 {fill:white}
   ]]>
  </style>
 </defs>
<symbol id="hex_bevel" viewBox="42 33 2117 1833">
 <path id="hex_bevel_0" class="fil0" d="M42 950l264 -458 265 -459 529 0 529 0 265 459 264 458 -264 458 -265 459 -529 0 -529 0 -265 -459 -264 -458zm81 0l489 846 976 0 489 -846 -489 -846 -976 0 -489 846z"/>
</symbol>
 <g id="main">
  <metadata id="CorelCorpID_0Corel-Layer"/>
  <path id="solar" class="fil0" d="M1597 1095c63,0 115,41 115,92 0,51 -52,93 -115,93 -64,0 -115,-42 -115,-93 0,-51 51,-92 115,-92zm-506 -363l25 97 63 -78 -17 99 90 -46 -56 84 101 -6 -85 54 94 36 -99 15 71 70 -97 -26 37 93 -78 -64 -4 101 -46 -90 -45 90 -4 -101 -78 64 37 -94 -97 27 71 -70 -99 -15 94 -36 -85 -54 101 6 -56 -84 90 46 -17 -99 63 78 26 -97zm39 -145c19,0 39,1 58,4 -13,16 -20,36 -22,58 -13,-2 -27,-2 -41,-2 -199,0 -372,135 -385,303 -14,168 136,303 335,303 199,0 372,-135 385,-303 6,-78 -23,-149 -76,-203 20,-13 36,-30 45,-50 70,65 109,155 101,253 -16,200 -222,363 -460,363 -237,0 -417,-163 -400,-363 16,-200 222,-363 460,-363zm173 -9c49,0 89,34 89,76 0,42 -40,76 -89,76 -49,0 -89,-34 -89,-76 0,-42 40,-76 89,-76zm-159 -166c352,0 619,241 595,538 -4,44 -14,87 -29,128 -16,-11 -35,-19 -55,-25 11,-33 19,-68 22,-103 22,-268 -219,-486 -537,-486 -319,0 -595,218 -617,486 -22,268 219,486 537,486 160,0 308,-54 420,-142 16,11 34,20 54,26 -125,103 -295,168 -478,168 -352,0 -619,-241 -595,-538 25,-297 330,-538 683,-538z"/>
  <use id="hex_bevel_1" x="42" y="33" width="2117" height="1833" xlink:href="#hex_bevel"/>
 </g>
</svg>
