<svg xmlns="http://www.w3.org/2000/svg" viewBox="0 0 490.325 62.518"><defs><style>.a{fill:#fff;}.b,.c{fill:#ec2227;}.b{fill-rule:evenodd;}</style></defs><title>logo</title><path class="a" d="M487.156,0a3.054,3.054,0,0,1,2.256.932,3.054,3.054,0,0,1,.913,2.264,3.107,3.107,0,0,1-.951,2.264,3.109,3.109,0,0,1-2.271.932H467.395l-.163,19.44a3.213,3.213,0,0,1-3.222,3.2,3.15,3.15,0,0,1-3.169-3.2L461,6.391H445.526a10.8,10.8,0,0,0-.654-2.084A11.346,11.346,0,0,0,442.379.656q-.35-.344-.725-.656Z"/><path class="a" d="M433.723,17.709q1.789,1.132,3.642,2.43t3.77,2.829A6,6,0,0,1,442.39,24.2a2.6,2.6,0,0,1,.519,1.631,3.215,3.215,0,0,1-3.223,3.2,3.537,3.537,0,0,1-2.255-.932q-2.714-2-5.561-3.862a49.873,49.873,0,0,0-5.93-3.329,36.161,36.161,0,0,0-6.4-2.33,27.292,27.292,0,0,0-6.916-.866H399.37a2.44,2.44,0,0,0-1.472.8,2.415,2.415,0,0,0-.613,1.665l-.047,5.659a3.056,3.056,0,0,1-.984,2.264,3.146,3.146,0,0,1-2.238.932,3.15,3.15,0,0,1-3.169-3.2l.053-6.391a8.085,8.085,0,0,1,.659-3.163,8.447,8.447,0,0,1,1.72-2.6,7.855,7.855,0,0,1,2.545-1.731,8.006,8.006,0,0,1,3.2-.633h35.286a2.558,2.558,0,0,0,1.77-.7,2.377,2.377,0,0,0,.03-3.5,2.46,2.46,0,0,0-1.758-.733H389.5a18.116,18.116,0,0,0-1.767-3.054A15.872,15.872,0,0,0,384.521,0h49.617a8.737,8.737,0,0,1,3.489.7,9.233,9.233,0,0,1,2.847,1.9,8.658,8.658,0,0,1,1.907,2.8,8.5,8.5,0,0,1,.67,3.461,8.594,8.594,0,0,1-.728,3.462,8.857,8.857,0,0,1-1.954,2.8,9.45,9.45,0,0,1-2.879,1.9,8.827,8.827,0,0,1-3.5.7Z"/><path class="a" d="M115.663,17.709a8.5,8.5,0,0,1-3.456-.7,8.877,8.877,0,0,1-4.654-4.694,8.5,8.5,0,0,1-.67-3.462,8.58,8.58,0,0,1,.728-3.461A9.094,9.094,0,0,1,112.344.7a8.586,8.586,0,0,1,3.468-.7h47.951l-.124.145a9.681,9.681,0,0,0-2.2,6.246H115.625a2.561,2.561,0,0,0-1.77.7,2.377,2.377,0,0,0-.029,3.5,2.457,2.457,0,0,0,1.758.732H152.4a8.845,8.845,0,0,1,6.3,2.6,8.822,8.822,0,0,1,1.874,2.83,8.728,8.728,0,0,1,.669,3.5,8.564,8.564,0,0,1-.728,3.461,9.134,9.134,0,0,1-1.92,2.8,8.6,8.6,0,0,1-2.846,1.864,9.209,9.209,0,0,1-3.5.666h-52.11a16.207,16.207,0,0,0,3.163-3.119,18.362,18.362,0,0,0,2.013-3.272h47.253a2.442,2.442,0,0,0,1.737-.7,2.278,2.278,0,0,0,.747-1.7,2.425,2.425,0,0,0-.718-1.8,2.346,2.346,0,0,0-1.725-.732Z"/><path class="a" d="M287.171,6.391l-.135,16.067c10.224,0,20.3.178,30.692.178a7.526,7.526,0,0,0,3.736-.832,6.943,6.943,0,0,0,2.314-2.031,7.177,7.177,0,0,0,1.153-2.63,12.945,12.945,0,0,0,.322-2.629,12.89,12.89,0,0,0-.278-2.63,7.047,7.047,0,0,0-1.11-2.63,6.775,6.775,0,0,0-2.28-2.03,7.432,7.432,0,0,0-3.721-.833ZM1.214,9.42A15.732,15.732,0,0,1,3.683,4.76,13.439,13.439,0,0,1,7.574,1.332,9.977,9.977,0,0,1,12.711,0H54.684A16.2,16.2,0,0,0,51.52,3.119a18.369,18.369,0,0,0-2.013,3.272H14.056a7.475,7.475,0,0,0-3.768.833,7.04,7.04,0,0,0-2.281,2.03,7.2,7.2,0,0,0-1.154,2.63,43.135,43.135,0,0,0-.12,14.2,7.079,7.079,0,0,0,1.11,2.629,6.869,6.869,0,0,0,2.247,2.031,7.406,7.406,0,0,0,3.755.832h46.29a13.75,13.75,0,0,0,1.49.154l.065,0H92.114a13.969,13.969,0,0,0,2.1-.157H280.568L280.806,3.2a3.11,3.11,0,0,1,.952-2.264A3.107,3.107,0,0,1,284.029,0h35.954a9.649,9.649,0,0,1,4.847,1.5,13.175,13.175,0,0,1,3.6,3.429,15.75,15.75,0,0,1,2.258,4.594,16.442,16.442,0,0,1,.757,4.993,16.483,16.483,0,0,1-.875,5.093,15.723,15.723,0,0,1-2.469,4.66,13.429,13.429,0,0,1-3.89,3.429,9.98,9.98,0,0,1-5.138,1.332l-32.091-.178-.049,5.8a3.062,3.062,0,0,1-.4,1.523,3.219,3.219,0,0,1-.628.865,3.111,3.111,0,0,1-2.271.932H11.727a8.941,8.941,0,0,1-4.85-1.332,12.535,12.535,0,0,1-3.6-3.428A16.043,16.043,0,0,1,1.02,28.515C-.343,23.956-.4,14.267,1.214,9.42Z"/><path class="a" d="M90.792,22.636a7.527,7.527,0,0,0,3.736-.832,6.939,6.939,0,0,0,2.314-2.031A7.169,7.169,0,0,0,98,17.143a12.9,12.9,0,0,0,.322-2.629,12.854,12.854,0,0,0-.278-2.63,7.045,7.045,0,0,0-1.11-2.63,6.772,6.772,0,0,0-2.279-2.03,7.433,7.433,0,0,0-3.722-.833h-26.9a7.477,7.477,0,0,0-3.769.833,7.044,7.044,0,0,0-2.281,2.03,7.212,7.212,0,0,0-1.154,2.63,13,13,0,0,0-.321,2.63,12.918,12.918,0,0,0,.277,2.629,7.068,7.068,0,0,0,1.11,2.63A6.862,6.862,0,0,0,60.141,21.8a7.407,7.407,0,0,0,3.754.832Zm13.717-8.123a16.507,16.507,0,0,1-.874,5.093,15.733,15.733,0,0,1-2.47,4.66,13.423,13.423,0,0,1-3.89,3.429,9.98,9.98,0,0,1-5.138,1.332H61.778a9.658,9.658,0,0,1-4.848-1.5,13.171,13.171,0,0,1-3.6-3.429,15.726,15.726,0,0,1-2.259-4.594,16.451,16.451,0,0,1-.757-4.993,16.493,16.493,0,0,1,.875-5.093A15.72,15.72,0,0,1,53.66,4.76a13.448,13.448,0,0,1,3.891-3.429A9.977,9.977,0,0,1,62.688,0H93.047a9.649,9.649,0,0,1,4.847,1.5,13.175,13.175,0,0,1,3.6,3.429,15.753,15.753,0,0,1,2.258,4.594,16.456,16.456,0,0,1,.757,4.993Z"/><path class="a" d="M220.174,25.832a3.213,3.213,0,0,1-3.222,3.2,3.151,3.151,0,0,1-3.169-3.2l.123-14.514q.023-2.729-.31-2.73-.266,0-1.879,1.8L196.929,27.03a5.463,5.463,0,0,1-2.143,1.5,7.715,7.715,0,0,1-5.459,0,5.335,5.335,0,0,1-2.118-1.5L172.7,10.386q-1.516-1.8-1.849-1.8t-.356,2.73l-.122,14.514a3.213,3.213,0,0,1-3.222,3.2,3.151,3.151,0,0,1-3.169-3.2l.163-19.44a6.953,6.953,0,0,1,1.57-4.527A5.615,5.615,0,0,1,172.782.8,11.835,11.835,0,0,1,175.1,2.729l15.166,17.443a7.1,7.1,0,0,0,.827.7,1.713,1.713,0,0,0,1.029.366,1.736,1.736,0,0,0,1.034-.366,7.27,7.27,0,0,0,.838-.7L209.384,2.729h.066a7.03,7.03,0,0,1,2.281-2A6.01,6.01,0,0,1,214.666,0a5.092,5.092,0,0,1,4.179,1.864,6.849,6.849,0,0,1,1.493,4.527l-.164,19.44Z"/><path class="a" d="M263.756,22.636a7.524,7.524,0,0,0,3.735-.832,6.939,6.939,0,0,0,2.314-2.031,7.178,7.178,0,0,0,1.154-2.63,12.967,12.967,0,0,0,.322-2.629,12.9,12.9,0,0,0-.278-2.63,7.046,7.046,0,0,0-1.109-2.63,6.774,6.774,0,0,0-2.28-2.03,7.433,7.433,0,0,0-3.721-.833H237a7.477,7.477,0,0,0-3.769.833,7.051,7.051,0,0,0-2.281,2.03,7.213,7.213,0,0,0-1.154,2.63,12.972,12.972,0,0,0-.321,2.63,12.882,12.882,0,0,0,.277,2.629,7.059,7.059,0,0,0,1.109,2.63A6.869,6.869,0,0,0,233.1,21.8a7.4,7.4,0,0,0,3.754.832Zm13.716-8.123a16.48,16.48,0,0,1-.875,5.093,15.712,15.712,0,0,1-2.47,4.66,13.428,13.428,0,0,1-3.89,3.429,9.98,9.98,0,0,1-5.138,1.332H234.742a9.658,9.658,0,0,1-4.848-1.5,13.171,13.171,0,0,1-3.6-3.429,15.735,15.735,0,0,1-2.258-4.594,16,16,0,0,1,.118-10.086,15.721,15.721,0,0,1,2.469-4.66,13.444,13.444,0,0,1,3.891-3.429A9.979,9.979,0,0,1,235.651,0h30.359a9.65,9.65,0,0,1,4.847,1.5,13.168,13.168,0,0,1,3.6,3.429,15.741,15.741,0,0,1,2.258,4.594,16.458,16.458,0,0,1,.757,4.993Z"/><path class="a" d="M374.831,22.636a7.524,7.524,0,0,0,3.735-.832,6.934,6.934,0,0,0,2.314-2.031,7.185,7.185,0,0,0,1.154-2.63,13,13,0,0,0,.322-2.629,12.925,12.925,0,0,0-.278-2.63,7.055,7.055,0,0,0-1.11-2.63,6.777,6.777,0,0,0-2.279-2.03,7.435,7.435,0,0,0-3.722-.833h-26.9a7.477,7.477,0,0,0-3.769.833,7.05,7.05,0,0,0-2.281,2.03,7.211,7.211,0,0,0-1.153,2.63,12.939,12.939,0,0,0-.322,2.63,12.847,12.847,0,0,0,.277,2.629,7.06,7.06,0,0,0,1.11,2.63,6.86,6.86,0,0,0,2.246,2.031,7.407,7.407,0,0,0,3.755.832Zm13.716-8.123a16.465,16.465,0,0,1-.875,5.093,15.722,15.722,0,0,1-2.469,4.66,13.43,13.43,0,0,1-3.89,3.429,9.98,9.98,0,0,1-5.138,1.332H345.817a9.658,9.658,0,0,1-4.848-1.5,13.171,13.171,0,0,1-3.6-3.429,15.751,15.751,0,0,1-2.259-4.594,16.447,16.447,0,0,1-.756-4.993,16.478,16.478,0,0,1,.875-5.093A15.718,15.718,0,0,1,337.7,4.76a13.444,13.444,0,0,1,3.891-3.429A9.981,9.981,0,0,1,346.726,0h30.359a9.649,9.649,0,0,1,4.847,1.5,13.168,13.168,0,0,1,3.6,3.429A15.741,15.741,0,0,1,387.79,9.52a16.458,16.458,0,0,1,.757,4.993Z"/><path class="b" d="M293.52,10.5h21.25a3.753,3.753,0,0,1,4.007,3.454l-.009,1.126c-.016,1.9-1.846,3.454-4.065,3.454H293.426l.095-8.034Z"/><path class="c" d="M302.789,54.651a5.7,5.7,0,0,1-2.312-.467,6,6,0,0,1-3.136-3.136,5.961,5.961,0,0,1,0-4.625,6,6,0,0,1,3.136-3.136,5.71,5.71,0,0,1,2.313-.467h27a2.135,2.135,0,1,1,0,4.27H302.7a1.7,1.7,0,0,0-1.178.467,1.527,1.527,0,0,0-.512,1.179,1.546,1.546,0,0,0,.512,1.156,1.653,1.653,0,0,0,1.178.489h24.594a5.866,5.866,0,0,1,2.335.467,5.877,5.877,0,0,1,3.158,3.158,5.86,5.86,0,0,1,.467,2.335,5.7,5.7,0,0,1-.467,2.312,6.042,6.042,0,0,1-1.267,1.868,5.679,5.679,0,0,1-1.891,1.245,6.118,6.118,0,0,1-2.335.445H300.343a2.135,2.135,0,1,1,0-4.27h27.129a1.618,1.618,0,0,0,1.156-.467,1.509,1.509,0,0,0,.489-1.134,1.633,1.633,0,0,0-.489-1.2,1.581,1.581,0,0,0-1.156-.489Z"/><path class="c" d="M344.267,47.09v3.291h24.684a1.7,1.7,0,0,0,1.179-.467,1.528,1.528,0,0,0,.511-1.179,1.549,1.549,0,0,0-.511-1.156,1.655,1.655,0,0,0-1.179-.489Zm24.506-4.27a5.871,5.871,0,0,1,2.335.467,6.248,6.248,0,0,1,1.912,1.268,5.85,5.85,0,0,1,1.29,1.868,5.961,5.961,0,0,1,0,4.625,5.849,5.849,0,0,1-1.29,1.868,6.239,6.239,0,0,1-1.912,1.268,5.863,5.863,0,0,1-2.335.467H344.267v5.426a2.025,2.025,0,0,1-.644,1.513,2.083,2.083,0,0,1-1.49.622A2.126,2.126,0,0,1,340,60.077V44.956a2.126,2.126,0,0,1,2.135-2.135Z"/><path class="c" d="M389.837,57.409a2.734,2.734,0,1,1,.8,1.957,2.662,2.662,0,0,1-.8-1.957Zm-9.384,4a2.122,2.122,0,0,1-3.78-1.334,1.842,1.842,0,0,1,.445-1.29l10.807-14.543a5.9,5.9,0,0,1,4.67-2.312,5.772,5.772,0,0,1,2.535.578,5.193,5.193,0,0,1,1.957,1.6l10.807,14.455a3.057,3.057,0,0,1,.445.689,1.906,1.906,0,0,1,.178.822,2.126,2.126,0,0,1-2.135,2.135,1.989,1.989,0,0,1-1.69-.845L394.329,47.535a9.541,9.541,0,0,0-.778-.778,1.293,1.293,0,0,0-1.912,0,5.678,5.678,0,0,0-.734.778L380.453,61.411Z"/><path class="c" d="M412.454,52.516a10.969,10.969,0,0,1,.556-3.4A10.374,10.374,0,0,1,414.633,46a8.856,8.856,0,0,1,2.579-2.29,6.625,6.625,0,0,1,3.425-.89h25.929a2.135,2.135,0,1,1,0,4.27H421.571a4.972,4.972,0,0,0-2.513.556A4.649,4.649,0,0,0,417.546,49a4.76,4.76,0,0,0-.756,1.757,7.807,7.807,0,0,0,0,3.513,4.755,4.755,0,0,0,.756,1.757,4.639,4.639,0,0,0,1.512,1.356,4.972,4.972,0,0,0,2.513.556h24.995a2.135,2.135,0,1,1,0,4.27H420.192a5.994,5.994,0,0,1-3.246-.89,8.479,8.479,0,0,1-2.424-2.29,10.819,10.819,0,0,1-1.534-3.135,11.458,11.458,0,0,1-.534-3.38Z"/><path class="c" d="M485.713,50.381a2.135,2.135,0,1,1,0,4.269H463.565a2.135,2.135,0,1,1,0-4.269ZM463.076,47.09a4.972,4.972,0,0,0-2.513.556A4.655,4.655,0,0,0,459.051,49a4.759,4.759,0,0,0-.756,1.757,7.807,7.807,0,0,0,0,3.513,4.754,4.754,0,0,0,.756,1.757,4.645,4.645,0,0,0,1.512,1.356,4.972,4.972,0,0,0,2.513.556h24.505a2.135,2.135,0,1,1,0,4.27H461.653a5.994,5.994,0,0,1-3.247-.89,8.48,8.48,0,0,1-2.424-2.29,10.809,10.809,0,0,1-1.534-3.135,11.444,11.444,0,0,1-.534-3.38,10.969,10.969,0,0,1,.556-3.4A10.376,10.376,0,0,1,456.094,46a8.847,8.847,0,0,1,2.58-2.29,6.622,6.622,0,0,1,3.424-.89h25.484a2.135,2.135,0,1,1,0,4.27Z"/><path class="a" d="M3.906,59.843H12.57a.508.508,0,0,0,.413-.254,1.007,1.007,0,0,0,.18-.6,1,1,0,0,0-.18-.611.511.511,0,0,0-.413-.242H3.906v1.706Zm0-5.627v1.707h8.679a.5.5,0,0,0,.406-.23.977.977,0,0,0,.172-.6,1.061,1.061,0,0,0-.18-.611.5.5,0,0,0-.413-.265Zm-.75,7.84a.632.632,0,0,1-.53-.323,1.362,1.362,0,0,1-.219-.784V53.109a1.364,1.364,0,0,1,.219-.784A.632.632,0,0,1,3.156,52h9.351a1.507,1.507,0,0,1,.82.242A2.342,2.342,0,0,1,14,52.9a3.309,3.309,0,0,1,.453.979,4.342,4.342,0,0,1,.164,1.211,4.139,4.139,0,0,1-.133,1.072,3.877,3.877,0,0,1-.351.888,3.892,3.892,0,0,1,.351.888,4.047,4.047,0,0,1,.133,1.049,4.22,4.22,0,0,1-.164,1.2,3.344,3.344,0,0,1-.453.969,2.346,2.346,0,0,1-.671.657,1.5,1.5,0,0,1-.82.242Zm14.1-8.947a1.364,1.364,0,0,1,.218-.784A.632.632,0,0,1,18.008,52H29.076a.632.632,0,0,1,.531.322,1.518,1.518,0,0,1,0,1.568.634.634,0,0,1-.531.323H18.008a.634.634,0,0,1-.531-.323,1.364,1.364,0,0,1-.218-.784Zm1.9,8.947a1.269,1.269,0,0,1-.687-.219,2.117,2.117,0,0,1-.609-.611,3.557,3.557,0,0,1-.437-.945,4.206,4.206,0,0,1-.171-1.245V56.96a1.081,1.081,0,0,1,.242-.831,1.147,1.147,0,0,1,.757-.207H28.732a.632.632,0,0,1,.531.323,1.515,1.515,0,0,1,0,1.568.632.632,0,0,1-.531.323H18.757v1.13a.644.644,0,0,0,.132.4.422.422,0,0,0,.351.173h9.835a.633.633,0,0,1,.531.323,1.517,1.517,0,0,1,0,1.568.633.633,0,0,1-.531.323ZM39.494,60.95a1.362,1.362,0,0,1-.219.784.6.6,0,0,1-1.062,0A1.366,1.366,0,0,1,38,60.95V58.136a3.024,3.024,0,0,1-1.155-.23,4.875,4.875,0,0,1-1.178-.727,11.418,11.418,0,0,1-1.319-1.28q-.7-.784-1.577-1.914a1.484,1.484,0,0,1-.21-.392,1.475,1.475,0,0,1,.132-1.269A.632.632,0,0,1,33.218,52a.461.461,0,0,1,.281.092,1.675,1.675,0,0,1,.25.23q1,1.292,1.678,2.018a6.787,6.787,0,0,0,1.218,1.072,2.754,2.754,0,0,0,1.022.426,6.632,6.632,0,0,0,1.092.081,7.481,7.481,0,0,0,1.078-.069,2.537,2.537,0,0,0,1-.415,6.931,6.931,0,0,0,1.21-1.072q.679-.726,1.694-2.041A.721.721,0,0,1,44.27,52a.632.632,0,0,1,.531.322,1.473,1.473,0,0,1,.133,1.269,1.511,1.511,0,0,1-.211.392q-.858,1.107-1.577,1.9a11.016,11.016,0,0,1-1.35,1.291,5.091,5.091,0,0,1-1.2.727,2.935,2.935,0,0,1-1.1.23V60.95ZM57.17,59.843a1.311,1.311,0,0,0,.874-.289,2.032,2.032,0,0,0,.539-.7,3.19,3.19,0,0,0,.265-.911,5.933,5.933,0,0,0,0-1.821,3.18,3.18,0,0,0-.265-.911,2.032,2.032,0,0,0-.539-.7,1.311,1.311,0,0,0-.874-.289H50.864a1.3,1.3,0,0,0-.882.289,2.078,2.078,0,0,0-.531.7,3.148,3.148,0,0,0-.265.911,5.933,5.933,0,0,0,0,1.821,3.158,3.158,0,0,0,.265.911,2.077,2.077,0,0,0,.531.7,1.3,1.3,0,0,0,.882.289Zm3.2-2.813a8.186,8.186,0,0,1-.2,1.764,6.6,6.6,0,0,1-.569,1.614A3.945,3.945,0,0,1,58.7,61.6a1.782,1.782,0,0,1-1.2.461H50.38a1.806,1.806,0,0,1-1.139-.519,4.114,4.114,0,0,1-.851-1.187,6.833,6.833,0,0,1-.539-1.591,8.088,8.088,0,0,1,.008-3.494,6.6,6.6,0,0,1,.57-1.614,3.943,3.943,0,0,1,.905-1.187,1.783,1.783,0,0,1,1.2-.461h7.118a1.806,1.806,0,0,1,1.14.518,4.111,4.111,0,0,1,.851,1.187,6.831,6.831,0,0,1,.538,1.591,8.256,8.256,0,0,1,.188,1.73Zm13.275-3.92a1.368,1.368,0,0,1,.218-.784.6.6,0,0,1,1.062,0,1.368,1.368,0,0,1,.219.784v6.71a2.809,2.809,0,0,1-.43,1.591,1.257,1.257,0,0,1-1.069.645,1.058,1.058,0,0,1-.429-.092,1.346,1.346,0,0,1-.383-.254l-7.149-6.457q-.3-.253-.492-.4a.583.583,0,0,0-.32-.15q-.234,0-.3.438a9.572,9.572,0,0,0-.063,1.269V60.95a1.362,1.362,0,0,1-.218.784.6.6,0,0,1-1.062,0,1.366,1.366,0,0,1-.218-.784V54.239a2.81,2.81,0,0,1,.429-1.591A1.258,1.258,0,0,1,64.513,52a1.06,1.06,0,0,1,.43.092,1.335,1.335,0,0,1,.382.254l7.149,6.457q.3.253.492.4a.587.587,0,0,0,.32.15q.234,0,.3-.438a9.666,9.666,0,0,0,.063-1.268V53.109ZM87.31,59.843a1.311,1.311,0,0,0,.874-.289,2.03,2.03,0,0,0,.539-.7,3.184,3.184,0,0,0,.266-.911,5.967,5.967,0,0,0,0-1.821,3.174,3.174,0,0,0-.266-.911,2.031,2.031,0,0,0-.539-.7,1.311,1.311,0,0,0-.874-.289H78.538a.633.633,0,0,1-.531-.323,1.515,1.515,0,0,1,0-1.568A.632.632,0,0,1,78.538,52h9.1a1.782,1.782,0,0,1,1.2.461,3.936,3.936,0,0,1,.905,1.187,6.6,6.6,0,0,1,.57,1.614,8.1,8.1,0,0,1,.007,3.494,6.833,6.833,0,0,1-.539,1.591,4.1,4.1,0,0,1-.851,1.187,1.806,1.806,0,0,1-1.14.519H78.538a.632.632,0,0,1-.531-.323,1.362,1.362,0,0,1-.219-.784v-3.92a1.365,1.365,0,0,1,.219-.784.6.6,0,0,1,1.061,0,1.365,1.365,0,0,1,.219.784v2.813Z"/><path class="a" d="M125.717,52a.631.631,0,0,1,.531.322,1.515,1.515,0,0,1,0,1.568.633.633,0,0,1-.531.323H121.1V60.95a1.366,1.366,0,0,1-.218.784.6.6,0,0,1-1.061,0,1.362,1.362,0,0,1-.218-.784V54.216h-4.683a.725.725,0,0,1-.484-.357,1.339,1.339,0,0,1-.2-.749,1.368,1.368,0,0,1,.218-.784.632.632,0,0,1,.531-.322Zm15.616,8.947a1.362,1.362,0,0,1-.218.784.6.6,0,0,1-1.062,0,1.366,1.366,0,0,1-.218-.784V58.136H130.61V60.95a1.366,1.366,0,0,1-.219.784.6.6,0,0,1-1.062,0,1.363,1.363,0,0,1-.218-.784V53.109a1.365,1.365,0,0,1,.218-.784.6.6,0,0,1,1.062,0,1.368,1.368,0,0,1,.219.784v2.813h9.226V53.109a1.368,1.368,0,0,1,.218-.784.6.6,0,0,1,1.062,0,1.364,1.364,0,0,1,.218.784V60.95Zm2.644-7.841a1.364,1.364,0,0,1,.219-.784.631.631,0,0,1,.53-.322h11.068a.631.631,0,0,1,.531.322,1.515,1.515,0,0,1,0,1.568.633.633,0,0,1-.531.323H144.727a.633.633,0,0,1-.53-.323,1.364,1.364,0,0,1-.219-.784Zm1.9,8.947a1.271,1.271,0,0,1-.687-.219,2.128,2.128,0,0,1-.609-.611,3.566,3.566,0,0,1-.437-.945,4.2,4.2,0,0,1-.171-1.245V56.96a1.081,1.081,0,0,1,.242-.831,1.146,1.146,0,0,1,.757-.207h10.475a.633.633,0,0,1,.531.323,1.518,1.518,0,0,1,0,1.568.633.633,0,0,1-.531.323h-9.975v1.13a.645.645,0,0,0,.133.4.422.422,0,0,0,.351.173h9.835a.631.631,0,0,1,.531.323,1.514,1.514,0,0,1,0,1.568.631.631,0,0,1-.531.323Zm35.878-5.027a6.584,6.584,0,0,0,.07.911,3.2,3.2,0,0,0,.266.911,2.082,2.082,0,0,0,.531.7,1.306,1.306,0,0,0,.882.289h6.212a1.313,1.313,0,0,0,.875-.289,2.035,2.035,0,0,0,.538-.7,3.187,3.187,0,0,0,.265-.911,6.527,6.527,0,0,0,.07-.911v-3.9a1.362,1.362,0,0,1,.219-.784.6.6,0,0,1,1.061,0,1.365,1.365,0,0,1,.219.784v3.9a8.181,8.181,0,0,1-.2,1.764,6.557,6.557,0,0,1-.57,1.614A3.936,3.936,0,0,1,191.3,61.6a1.781,1.781,0,0,1-1.2.461h-7.119a1.806,1.806,0,0,1-1.139-.519,4.112,4.112,0,0,1-.851-1.187,6.856,6.856,0,0,1-.538-1.591,8.251,8.251,0,0,1-.187-1.729v-3.9a1.362,1.362,0,0,1,.219-.784.6.6,0,0,1,1.062,0,1.366,1.366,0,0,1,.218.784v3.9Zm24.483-3.92a1.364,1.364,0,0,1,.219-.784.6.6,0,0,1,1.061,0,1.368,1.368,0,0,1,.218.784v6.71a2.812,2.812,0,0,1-.429,1.591,1.257,1.257,0,0,1-1.069.645,1.059,1.059,0,0,1-.429-.092,1.338,1.338,0,0,1-.382-.254l-7.149-6.457c-.2-.169-.362-.3-.492-.4a.581.581,0,0,0-.32-.15q-.234,0-.3.438a9.589,9.589,0,0,0-.062,1.269V60.95a1.362,1.362,0,0,1-.219.784.6.6,0,0,1-1.061,0,1.366,1.366,0,0,1-.218-.784V54.239a2.81,2.81,0,0,1,.429-1.591A1.257,1.257,0,0,1,197.112,52a1.059,1.059,0,0,1,.429.092,1.339,1.339,0,0,1,.383.254l7.149,6.457q.3.253.492.4a.585.585,0,0,0,.32.15q.234,0,.3-.438a9.578,9.578,0,0,0,.063-1.268V53.109Zm5.642,7.841a1.366,1.366,0,0,1-.219.784.6.6,0,0,1-1.062,0,1.366,1.366,0,0,1-.218-.784V53.109a1.368,1.368,0,0,1,.218-.784.6.6,0,0,1,1.062,0,1.368,1.368,0,0,1,.219.784V60.95Zm12.494-8.533a.674.674,0,0,1,.578-.414.632.632,0,0,1,.531.322,1.368,1.368,0,0,1,.218.784,1.266,1.266,0,0,1-.156.669l-.016.023-3.778,7.518a2.647,2.647,0,0,1-.71.865,1.453,1.453,0,0,1-1.811.035,2.379,2.379,0,0,1-.695-.831l-3.793-7.495a1.777,1.777,0,0,1-.156-.357,1.4,1.4,0,0,1-.062-.427,1.364,1.364,0,0,1,.218-.784.632.632,0,0,1,.53-.322.661.661,0,0,1,.593.438l3.638,7.171a4.514,4.514,0,0,0,.273.4.367.367,0,0,0,.671,0,2.762,2.762,0,0,0,.257-.4l3.668-7.195Zm3.971.692a1.368,1.368,0,0,1,.218-.784A.632.632,0,0,1,229.1,52h11.068a.632.632,0,0,1,.531.322,1.518,1.518,0,0,1,0,1.568.634.634,0,0,1-.531.323H229.1a.634.634,0,0,1-.531-.323,1.367,1.367,0,0,1-.218-.784Zm1.9,8.947a1.269,1.269,0,0,1-.687-.219,2.122,2.122,0,0,1-.608-.611,3.557,3.557,0,0,1-.437-.945,4.206,4.206,0,0,1-.171-1.245V56.96a1.081,1.081,0,0,1,.242-.831,1.149,1.149,0,0,1,.757-.207h10.475a.632.632,0,0,1,.531.323,1.515,1.515,0,0,1,0,1.568.632.632,0,0,1-.531.323h-9.975v1.13a.644.644,0,0,0,.133.4.421.421,0,0,0,.351.173h9.834a.633.633,0,0,1,.531.323,1.517,1.517,0,0,1,0,1.568.633.633,0,0,1-.531.323Zm23.343-3.92q.422.392.859.842t.89.979a1.891,1.891,0,0,1,.3.427,1.215,1.215,0,0,1,.125.565,1.366,1.366,0,0,1-.218.784.633.633,0,0,1-.531.323.721.721,0,0,1-.531-.323q-.64-.692-1.311-1.337a11.681,11.681,0,0,0-1.4-1.153,7.018,7.018,0,0,0-1.506-.807,4.483,4.483,0,0,0-1.624-.3h-3.107a.55.55,0,0,0-.343.277,1.087,1.087,0,0,0-.141.576v1.96a1.334,1.334,0,0,1-.226.784.642.642,0,0,1-.524.323.632.632,0,0,1-.53-.323,1.362,1.362,0,0,1-.219-.784V58.736a3.981,3.981,0,0,1,.148-1.1,3.272,3.272,0,0,1,.4-.9,2,2,0,0,1,.593-.6,1.368,1.368,0,0,1,.75-.219h8.273a.515.515,0,0,0,.414-.242,1,1,0,0,0,.179-.611,1.016,1.016,0,0,0-.179-.6.509.509,0,0,0-.414-.253H244.31a.633.633,0,0,1-.53-.323,1.515,1.515,0,0,1,0-1.568.631.631,0,0,1,.53-.322h9.351a1.5,1.5,0,0,1,.819.242,2.337,2.337,0,0,1,.671.658,3.334,3.334,0,0,1,.453.968,4.48,4.48,0,0,1,0,2.4,3.334,3.334,0,0,1-.453.969,2.35,2.35,0,0,1-.671.657,1.506,1.506,0,0,1-.819.242Zm6.891,0a1.471,1.471,0,0,1-.812-.242,2.309,2.309,0,0,1-.656-.657,3.469,3.469,0,0,1-.445-.969,4.48,4.48,0,0,1,0-2.4,3.468,3.468,0,0,1,.445-.968,2.3,2.3,0,0,1,.656-.658,1.469,1.469,0,0,1,.812-.242h9.475a.632.632,0,0,1,.531.322,1.518,1.518,0,0,1,0,1.568.633.633,0,0,1-.531.323h-9.506a.513.513,0,0,0-.414.242,1,1,0,0,0-.179.611,1.011,1.011,0,0,0,.179.6.51.51,0,0,0,.414.254h8.632a1.5,1.5,0,0,1,.819.242,2.259,2.259,0,0,1,.664.657,3.451,3.451,0,0,1,.445.98,4.321,4.321,0,0,1,.164,1.21,4.2,4.2,0,0,1-.164,1.2,3.474,3.474,0,0,1-.445.969,2.136,2.136,0,0,1-.664.645,1.558,1.558,0,0,1-.819.23h-9.46a.632.632,0,0,1-.531-.323,1.517,1.517,0,0,1,0-1.568.632.632,0,0,1,.531-.323h9.523a.493.493,0,0,0,.406-.243.991.991,0,0,0,.172-.588,1.087,1.087,0,0,0-.172-.622.49.49,0,0,0-.406-.253Zm13.337-5.027a1.364,1.364,0,0,1,.219-.784.631.631,0,0,1,.531-.322h11.067a.631.631,0,0,1,.531.322,1.518,1.518,0,0,1,0,1.568.633.633,0,0,1-.531.323H274.575a.633.633,0,0,1-.531-.323,1.364,1.364,0,0,1-.219-.784Zm1.9,8.947a1.266,1.266,0,0,1-.686-.219,2.117,2.117,0,0,1-.609-.611,3.541,3.541,0,0,1-.437-.945,4.206,4.206,0,0,1-.172-1.245V56.96a1.079,1.079,0,0,1,.242-.831,1.146,1.146,0,0,1,.757-.207H285.3a.633.633,0,0,1,.531.323,1.518,1.518,0,0,1,0,1.568.633.633,0,0,1-.531.323h-9.975v1.13a.644.644,0,0,0,.133.4.422.422,0,0,0,.351.173h9.834a.632.632,0,0,1,.531.323,1.517,1.517,0,0,1,0,1.568.632.632,0,0,1-.531.323Z"/></svg>